<svg width="20" height="16" viewBox="0 0 20 16" fill="none" xmlns="http://www.w3.org/2000/svg">
<g id="Tail Icon">
<path id="icon" fill-rule="evenodd" clip-rule="evenodd" d="M9.99986 14.9446C13.8352 14.9446 16.9443 11.8354 16.9443 8.00011C16.9443 4.1648 13.8352 1.05566 9.99986 1.05566C6.16455 1.05566 3.05542 4.1648 3.05542 8.00011C3.05542 11.8354 6.16455 14.9446 9.99986 14.9446ZM14.0613 7.41085L10.5891 3.93863C10.2637 3.61319 9.73604 3.61319 9.41061 3.93863C9.08517 4.26407 9.08517 4.7917 9.41061 5.11714L11.4602 7.16677H6.52764C6.0674 7.16677 5.69431 7.53987 5.69431 8.00011C5.69431 8.46034 6.0674 8.83344 6.52764 8.83344H11.4602L9.41061 10.8831C9.08517 11.2085 9.08517 11.7361 9.41061 12.0616C9.73604 12.387 10.2637 12.387 10.5891 12.0616L14.0613 8.58936C14.2176 8.43308 14.3054 8.22112 14.3054 8.00011C14.3054 7.77909 14.2176 7.56713 14.0613 7.41085Z" fill="#41B870"/>
</g>
</svg>
