<svg width="20" height="20" viewBox="0 0 20 20" fill="none" xmlns="http://www.w3.org/2000/svg">
<g id="Icon">
<g id="Vector">
<path d="M16.875 6.875H12.5V2.5C12.5 2.00272 12.3025 1.52581 11.9508 1.17417C11.5992 0.822544 11.1223 0.625 10.625 0.625H3.125C2.62772 0.625 2.15081 0.822544 1.79917 1.17417C1.44754 1.52581 1.25 2.00272 1.25 2.5V18.75C1.25 18.9158 1.31585 19.0747 1.43306 19.1919C1.55027 19.3092 1.70924 19.375 1.875 19.375H5.9375C6.02038 19.375 6.09987 19.3421 6.15847 19.2835C6.21708 19.2249 6.25 19.1454 6.25 19.0625V16.2676C6.25 15.9313 6.50859 15.6426 6.84492 15.6258C6.92943 15.6217 7.01388 15.6348 7.09316 15.6644C7.17245 15.6939 7.24491 15.7392 7.30616 15.7976C7.3674 15.856 7.41617 15.9261 7.44949 16.0039C7.48281 16.0817 7.49999 16.1654 7.5 16.25V19.0625C7.5 19.1454 7.53292 19.2249 7.59153 19.2835C7.65013 19.3421 7.72962 19.375 7.8125 19.375H18.125C18.2908 19.375 18.4497 19.3092 18.5669 19.1919C18.6842 19.0747 18.75 18.9158 18.75 18.75V8.75C18.75 8.25272 18.5525 7.7758 18.2008 7.42417C17.8492 7.07254 17.3723 6.875 16.875 6.875ZM3.83125 16.8699C3.70181 16.8869 3.57031 16.8628 3.45522 16.8012C3.34013 16.7396 3.24722 16.6435 3.18954 16.5264C3.13185 16.4093 3.11228 16.2771 3.13357 16.1483C3.15486 16.0195 3.21595 15.9006 3.30826 15.8083C3.40057 15.716 3.51946 15.6549 3.64826 15.6336C3.77705 15.6123 3.90928 15.6318 4.02639 15.6895C4.1435 15.7472 4.2396 15.8401 4.30121 15.9552C4.36282 16.0703 4.38685 16.2018 4.36992 16.3312C4.35206 16.4679 4.28956 16.5947 4.19214 16.6921C4.09473 16.7896 3.96785 16.8521 3.83125 16.8699ZM3.83125 13.7449C3.70181 13.7619 3.57031 13.7378 3.45522 13.6762C3.34013 13.6146 3.24722 13.5185 3.18954 13.4014C3.13185 13.2843 3.11228 13.1521 3.13357 13.0233C3.15486 12.8945 3.21595 12.7756 3.30826 12.6833C3.40057 12.591 3.51946 12.5299 3.64826 12.5086C3.77705 12.4873 3.90928 12.5068 4.02639 12.5645C4.1435 12.6222 4.2396 12.7151 4.30121 12.8302C4.36282 12.9453 4.38685 13.0768 4.36992 13.2062C4.35206 13.3429 4.28956 13.4697 4.19214 13.5671C4.09473 13.6646 3.96785 13.7271 3.83125 13.7449ZM3.83125 10.6199C3.70181 10.6369 3.57031 10.6128 3.45522 10.5512C3.34013 10.4896 3.24722 10.3935 3.18954 10.2764C3.13185 10.1593 3.11228 10.0271 3.13357 9.89826C3.15486 9.76946 3.21595 9.65057 3.30826 9.55826C3.40057 9.46595 3.51946 9.40486 3.64826 9.38357C3.77705 9.36228 3.90928 9.38185 4.02639 9.43954C4.1435 9.49722 4.2396 9.59013 4.30121 9.70522C4.36282 9.82031 4.38685 9.95181 4.36992 10.0812C4.35206 10.2179 4.28956 10.3447 4.19214 10.4421C4.09473 10.5396 3.96785 10.6021 3.83125 10.6199ZM3.83125 7.49492C3.70181 7.51185 3.57031 7.48782 3.45522 7.42621C3.34013 7.3646 3.24722 7.2685 3.18954 7.15139C3.13185 7.03429 3.11228 6.90205 3.13357 6.77326C3.15486 6.64446 3.21595 6.52557 3.30826 6.43326C3.40057 6.34095 3.51946 6.27986 3.64826 6.25857C3.77705 6.23728 3.90928 6.25685 4.02639 6.31454C4.1435 6.37222 4.2396 6.46513 4.30121 6.58022C4.36282 6.69531 4.38685 6.82681 4.36992 6.95625C4.35206 7.09285 4.28956 7.21973 4.19214 7.31714C4.09473 7.41456 3.96785 7.47706 3.83125 7.49492ZM3.83125 4.36992C3.70181 4.38685 3.57031 4.36282 3.45522 4.30121C3.34013 4.2396 3.24722 4.1435 3.18954 4.02639C3.13185 3.90928 3.11228 3.77705 3.13357 3.64826C3.15486 3.51946 3.21595 3.40057 3.30826 3.30826C3.40057 3.21595 3.51946 3.15486 3.64826 3.13357C3.77705 3.11228 3.90928 3.13185 4.02639 3.18954C4.1435 3.24722 4.2396 3.34013 4.30121 3.45522C4.36282 3.57031 4.38685 3.70181 4.36992 3.83125C4.35206 3.96785 4.28956 4.09473 4.19214 4.19214C4.09473 4.28956 3.96785 4.35206 3.83125 4.36992ZM6.95625 13.7449C6.82681 13.7619 6.69531 13.7378 6.58022 13.6762C6.46513 13.6146 6.37222 13.5185 6.31454 13.4014C6.25685 13.2843 6.23728 13.1521 6.25857 13.0233C6.27986 12.8945 6.34095 12.7756 6.43326 12.6833C6.52557 12.591 6.64446 12.5299 6.77326 12.5086C6.90205 12.4873 7.03429 12.5068 7.15139 12.5645C7.2685 12.6222 7.3646 12.7151 7.42621 12.8302C7.48782 12.9453 7.51185 13.0768 7.49492 13.2062C7.47706 13.3429 7.41456 13.4697 7.31714 13.5671C7.21973 13.6646 7.09285 13.7271 6.95625 13.7449ZM6.95625 10.6199C6.82681 10.6369 6.69531 10.6128 6.58022 10.5512C6.46513 10.4896 6.37222 10.3935 6.31454 10.2764C6.25685 10.1593 6.23728 10.0271 6.25857 9.89826C6.27986 9.76946 6.34095 9.65057 6.43326 9.55826C6.52557 9.46595 6.64446 9.40486 6.77326 9.38357C6.90205 9.36228 7.03429 9.38185 7.15139 9.43954C7.2685 9.49722 7.3646 9.59013 7.42621 9.70522C7.48782 9.82031 7.51185 9.95181 7.49492 10.0812C7.47706 10.2179 7.41456 10.3447 7.31714 10.4421C7.21973 10.5396 7.09285 10.6021 6.95625 10.6199ZM6.95625 7.49492C6.82681 7.51185 6.69531 7.48782 6.58022 7.42621C6.46513 7.3646 6.37222 7.2685 6.31454 7.15139C6.25685 7.03429 6.23728 6.90205 6.25857 6.77326C6.27986 6.64446 6.34095 6.52557 6.43326 6.43326C6.52557 6.34095 6.64446 6.27986 6.77326 6.25857C6.90205 6.23728 7.03429 6.25685 7.15139 6.31454C7.2685 6.37222 7.3646 6.46513 7.42621 6.58022C7.48782 6.69531 7.51185 6.82681 7.49492 6.95625C7.47706 7.09285 7.41456 7.21973 7.31714 7.31714C7.21973 7.41456 7.09285 7.47706 6.95625 7.49492ZM6.95625 4.36992C6.82681 4.38685 6.69531 4.36282 6.58022 4.30121C6.46513 4.2396 6.37222 4.1435 6.31454 4.02639C6.25685 3.90928 6.23728 3.77705 6.25857 3.64826C6.27986 3.51946 6.34095 3.40057 6.43326 3.30826C6.52557 3.21595 6.64446 3.15486 6.77326 3.13357C6.90205 3.11228 7.03429 3.13185 7.15139 3.18954C7.2685 3.24722 7.3646 3.34013 7.42621 3.45522C7.48782 3.57031 7.51185 3.70181 7.49492 3.83125C7.47706 3.96785 7.41456 4.09473 7.31714 4.19214C7.21973 4.28956 7.09285 4.35206 6.95625 4.36992ZM10.0812 16.8699C9.95181 16.8869 9.82031 16.8628 9.70522 16.8012C9.59013 16.7396 9.49722 16.6435 9.43954 16.5264C9.38185 16.4093 9.36228 16.2771 9.38357 16.1483C9.40486 16.0195 9.46595 15.9006 9.55826 15.8083C9.65057 15.716 9.76946 15.6549 9.89826 15.6336C10.0271 15.6123 10.1593 15.6318 10.2764 15.6895C10.3935 15.7472 10.4896 15.8401 10.5512 15.9552C10.6128 16.0703 10.6369 16.2018 10.6199 16.3312C10.6021 16.4679 10.5396 16.5947 10.4421 16.6921C10.3447 16.7896 10.2179 16.8521 10.0812 16.8699ZM10.0812 13.7449C9.95181 13.7619 9.82031 13.7378 9.70522 13.6762C9.59013 13.6146 9.49722 13.5185 9.43954 13.4014C9.38185 13.2843 9.36228 13.1521 9.38357 13.0233C9.40486 12.8945 9.46595 12.7756 9.55826 12.6833C9.65057 12.591 9.76946 12.5299 9.89826 12.5086C10.0271 12.4873 10.1593 12.5068 10.2764 12.5645C10.3935 12.6222 10.4896 12.7151 10.5512 12.8302C10.6128 12.9453 10.6369 13.0768 10.6199 13.2062C10.6021 13.3429 10.5396 13.4697 10.4421 13.5671C10.3447 13.6646 10.2179 13.7271 10.0812 13.7449ZM10.0812 10.6199C9.95181 10.6369 9.82031 10.6128 9.70522 10.5512C9.59013 10.4896 9.49722 10.3935 9.43954 10.2764C9.38185 10.1593 9.36228 10.0271 9.38357 9.89826C9.40486 9.76946 9.46595 9.65057 9.55826 9.55826C9.65057 9.46595 9.76946 9.40486 9.89826 9.38357C10.0271 9.36228 10.1593 9.38185 10.2764 9.43954C10.3935 9.49722 10.4896 9.59013 10.5512 9.70522C10.6128 9.82031 10.6369 9.95181 10.6199 10.0812C10.6021 10.2179 10.5396 10.3447 10.4421 10.4421C10.3447 10.5396 10.2179 10.6021 10.0812 10.6199ZM10.0812 7.49492C9.95181 7.51185 9.82031 7.48782 9.70522 7.42621C9.59013 7.3646 9.49722 7.2685 9.43954 7.15139C9.38185 7.03429 9.36228 6.90205 9.38357 6.77326C9.40486 6.64446 9.46595 6.52557 9.55826 6.43326C9.65057 6.34095 9.76946 6.27986 9.89826 6.25857C10.0271 6.23728 10.1593 6.25685 10.2764 6.31454C10.3935 6.37222 10.4896 6.46513 10.5512 6.58022C10.6128 6.69531 10.6369 6.82681 10.6199 6.95625C10.6021 7.09285 10.5396 7.21973 10.4421 7.31714C10.3447 7.41456 10.2179 7.47706 10.0812 7.49492ZM10.0812 4.36992C9.95181 4.38685 9.82031 4.36282 9.70522 4.30121C9.59013 4.2396 9.49722 4.1435 9.43954 4.02639C9.38185 3.90928 9.36228 3.77705 9.38357 3.64826C9.40486 3.51946 9.46595 3.40057 9.55826 3.30826C9.65057 3.21595 9.76946 3.15486 9.89826 3.13357C10.0271 3.11228 10.1593 3.13185 10.2764 3.18954C10.3935 3.24722 10.4896 3.34013 10.5512 3.45522C10.6128 3.57031 10.6369 3.70181 10.6199 3.83125C10.6021 3.96785 10.5396 4.09473 10.4421 4.19214C10.3447 4.28956 10.2179 4.35206 10.0812 4.36992ZM17.3438 18.125H12.5V8.125H16.875C17.0408 8.125 17.1997 8.19085 17.3169 8.30806C17.4342 8.42527 17.5 8.58424 17.5 8.75V17.9688C17.5 18.0102 17.4835 18.0499 17.4542 18.0792C17.4249 18.1085 17.3852 18.125 17.3438 18.125Z" fill="#828387"/>
<path d="M15.625 15.625C15.5014 15.625 15.3805 15.6617 15.2778 15.7303C15.175 15.799 15.0949 15.8966 15.0476 16.0108C15.0003 16.125 14.9879 16.2507 15.012 16.3719C15.0361 16.4932 15.0956 16.6045 15.1831 16.6919C15.2705 16.7794 15.3818 16.8389 15.5031 16.863C15.6243 16.8871 15.75 16.8747 15.8642 16.8274C15.9784 16.7801 16.076 16.7 16.1447 16.5972C16.2133 16.4945 16.25 16.3736 16.25 16.25C16.25 16.0842 16.1842 15.9253 16.0669 15.8081C15.9497 15.6908 15.7908 15.625 15.625 15.625Z" fill="#828387"/>
<path d="M15.625 12.5C15.5014 12.5 15.3805 12.5367 15.2778 12.6053C15.175 12.674 15.0949 12.7716 15.0476 12.8858C15.0003 13 14.9879 13.1257 15.012 13.2469C15.0361 13.3682 15.0956 13.4795 15.1831 13.5669C15.2705 13.6544 15.3818 13.7139 15.5031 13.738C15.6243 13.7621 15.75 13.7497 15.8642 13.7024C15.9784 13.6551 16.076 13.575 16.1447 13.4722C16.2133 13.3695 16.25 13.2486 16.25 13.125C16.25 12.9592 16.1842 12.8003 16.0669 12.6831C15.9497 12.5658 15.7908 12.5 15.625 12.5Z" fill="#828387"/>
<path d="M15.625 9.375C15.5014 9.375 15.3805 9.41166 15.2778 9.48033C15.175 9.54901 15.0949 9.64662 15.0476 9.76082C15.0003 9.87503 14.9879 10.0007 15.012 10.1219C15.0361 10.2432 15.0956 10.3545 15.1831 10.4419C15.2705 10.5294 15.3818 10.5889 15.5031 10.613C15.6243 10.6371 15.75 10.6247 15.8642 10.5774C15.9784 10.5301 16.076 10.45 16.1447 10.3472C16.2133 10.2445 16.25 10.1236 16.25 10C16.25 9.83424 16.1842 9.67527 16.0669 9.55806C15.9497 9.44085 15.7908 9.375 15.625 9.375Z" fill="#828387"/>
<path d="M13.125 15.625C13.0014 15.625 12.8805 15.6617 12.7778 15.7303C12.675 15.799 12.5949 15.8966 12.5476 16.0108C12.5003 16.125 12.4879 16.2507 12.512 16.3719C12.5361 16.4932 12.5956 16.6045 12.6831 16.6919C12.7705 16.7794 12.8818 16.8389 13.0031 16.863C13.1243 16.8871 13.25 16.8747 13.3642 16.8274C13.4784 16.7801 13.576 16.7 13.6447 16.5972C13.7133 16.4945 13.75 16.3736 13.75 16.25C13.75 16.0842 13.6842 15.9253 13.5669 15.8081C13.4497 15.6908 13.2908 15.625 13.125 15.625Z" fill="#828387"/>
<path d="M13.125 12.5C13.0014 12.5 12.8805 12.5367 12.7778 12.6053C12.675 12.674 12.5949 12.7716 12.5476 12.8858C12.5003 13 12.4879 13.1257 12.512 13.2469C12.5361 13.3682 12.5956 13.4795 12.6831 13.5669C12.7705 13.6544 12.8818 13.7139 13.0031 13.738C13.1243 13.7621 13.25 13.7497 13.3642 13.7024C13.4784 13.6551 13.576 13.575 13.6447 13.4722C13.7133 13.3695 13.75 13.2486 13.75 13.125C13.75 12.9592 13.6842 12.8003 13.5669 12.6831C13.4497 12.5658 13.2908 12.5 13.125 12.5Z" fill="#828387"/>
<path d="M13.125 9.375C13.0014 9.375 12.8805 9.41166 12.7778 9.48033C12.675 9.54901 12.5949 9.64662 12.5476 9.76082C12.5003 9.87503 12.4879 10.0007 12.512 10.1219C12.5361 10.2432 12.5956 10.3545 12.6831 10.4419C12.7705 10.5294 12.8818 10.5889 13.0031 10.613C13.1243 10.6371 13.25 10.6247 13.3642 10.5774C13.4784 10.5301 13.576 10.45 13.6447 10.3472C13.7133 10.2445 13.75 10.1236 13.75 10C13.75 9.83424 13.6842 9.67527 13.5669 9.55806C13.4497 9.44085 13.2908 9.375 13.125 9.375Z" fill="#828387"/>
</g>
</g>
</svg>
