<svg width="20" height="20" viewBox="0 0 20 20" fill="none" xmlns="http://www.w3.org/2000/svg">
<g id="Lead Icon">
<path id="icon" fill-rule="evenodd" clip-rule="evenodd" d="M1.75 6.16669C1.75 4.6479 2.98122 3.41669 4.5 3.41669H15.5C17.0188 3.41669 18.25 4.6479 18.25 6.16669V6.66669V13.8334C18.25 15.3521 17.0188 16.5834 15.5 16.5834H4.5C2.98122 16.5834 1.75 15.3521 1.75 13.8334V6.66669V6.16669ZM4.5 4.91669C3.80964 4.91669 3.25 5.47633 3.25 6.16669V6.2653L9.30662 10.303C9.7265 10.583 10.2735 10.583 10.6934 10.303L16.75 6.2653V6.16669C16.75 5.47633 16.1904 4.91669 15.5 4.91669H4.5ZM16.75 8.06807L11.5254 11.5511C10.6017 12.1669 9.3983 12.1669 8.47457 11.5511L3.25 8.06808V13.8334C3.25 14.5237 3.80964 15.0834 4.5 15.0834H15.5C16.1904 15.0834 16.75 14.5237 16.75 13.8334V8.06807Z" fill="#828387"/>
</g>
</svg>
