<svg width="52" height="40" viewBox="0 0 52 40" fill="none" xmlns="http://www.w3.org/2000/svg">
<g id="Group">
<path id="Vector" d="M34.2729 39.9313H4.48246C2.0069 39.9313 0 37.9244 0 35.4488V14.146C0 11.6705 2.00677 9.66357 4.48246 9.66357H34.2729C36.7485 9.66357 38.7554 11.6705 38.7554 14.146V35.4488C38.7552 37.9245 36.7485 39.9313 34.2729 39.9313Z" fill="#D9FFE8"/>
<g id="Group_2">
<g id="Group_3">
<g id="Group_4">
<path id="Vector_2" d="M30.1055 14.5535L33.6914 16.009C33.9699 16.1221 34.2876 15.988 34.4007 15.7093L37.3147 8.53022C37.4278 8.25151 37.2937 7.934 37.015 7.82089L33.4291 6.36533C33.1504 6.25222 32.8329 6.38637 32.7198 6.66509L29.8058 13.8441C29.6926 14.1228 29.8268 14.4404 30.1055 14.5535Z" fill="#FFCA36"/>
<path id="Vector_3" d="M33.4319 6.86426L30.6553 13.8445" stroke="black" stroke-width="0.2938" stroke-miterlimit="10" stroke-linecap="round" stroke-linejoin="round"/>
<path id="Vector_4" d="M33.0627 7.22203C33.0627 7.33565 32.9707 7.4277 32.857 7.4277C32.7434 7.4277 32.6514 7.33565 32.6514 7.22203C32.6514 7.10842 32.7434 7.01636 32.857 7.01636C32.9707 7.01623 33.0627 7.10842 33.0627 7.22203Z" fill="black"/>
<path id="Vector_5" d="M32.5152 8.18454C32.6288 8.18454 32.7209 8.09246 32.7209 7.97887C32.7209 7.86528 32.6288 7.77319 32.5152 7.77319C32.4017 7.77319 32.3096 7.86528 32.3096 7.97887C32.3096 8.09246 32.4017 8.18454 32.5152 8.18454Z" fill="black"/>
<path id="Vector_6" d="M32.2408 7.84473L29.8057 13.8439" stroke="black" stroke-width="0.2938" stroke-miterlimit="10" stroke-linecap="round" stroke-linejoin="round"/>
<path id="Vector_7" d="M37.3156 8.53022C37.4287 8.25151 37.2946 7.934 37.0159 7.82089L33.43 6.36533C33.1513 6.25222 32.8338 6.38637 32.7207 6.66509" stroke="black" stroke-width="0.2938" stroke-miterlimit="10" stroke-linecap="round" stroke-linejoin="round"/>
<path id="Vector_8" d="M28.373 11.9878H29.5072" stroke="black" stroke-width="0.2938" stroke-miterlimit="10" stroke-linecap="round" stroke-linejoin="round"/>
<path id="Vector_9" d="M28.5127 10.0994L30.0252 10.8663" stroke="black" stroke-width="0.2938" stroke-miterlimit="10" stroke-linecap="round" stroke-linejoin="round"/>
<path id="Vector_10" d="M30.0254 9.35522L30.5893 10.2776" stroke="black" stroke-width="0.2938" stroke-miterlimit="10" stroke-linecap="round" stroke-linejoin="round"/>
</g>
<g id="Group_5">
<path id="Vector_11" d="M30.9533 17.2813C30.9533 17.2813 29.7415 15.0401 30.089 12.3166C30.2517 11.0416 31.5244 11.818 31.5929 13.639C31.5965 13.7374 31.6627 13.9135 31.6968 13.8162C31.6968 13.8162 32.0859 12.231 32.3893 10.3734C32.4594 9.94375 32.5681 9.42221 33.1416 9.43223C34.2918 9.45239 33.1182 12.0149 33.1295 12.2505C33.1295 12.2505 33.3167 9.27753 34.3928 9.35577C35.3877 9.42817 34.2932 11.819 34.177 12.2654C34.2806 9.36819 35.5833 9.97 35.5833 9.97C36.1019 10.178 35.7548 11.2389 35.6237 11.5602C35.6764 11.5202 35.8095 10.6669 36.4543 10.8709C37.0862 11.0708 36.8322 12.2635 36.4583 13.4164C36.2785 13.9706 36.0157 14.5071 35.6735 15.0039C34.7714 16.3138 32.8464 18.5639 30.9533 17.2813Z" fill="#94332A"/>
<path id="Vector_12" d="M32.8096 13.4798C32.8096 13.4798 33.447 11.5835 33.6405 9.95874" stroke="black" stroke-width="0.2938" stroke-miterlimit="10" stroke-linecap="round" stroke-linejoin="round"/>
<path id="Vector_13" d="M33.5508 13.8763C33.5508 13.8763 34.6826 11.7459 34.8279 10.0991" stroke="black" stroke-width="0.2938" stroke-miterlimit="10" stroke-linecap="round" stroke-linejoin="round"/>
<path id="Vector_14" d="M34.4385 14.4655C34.4385 14.4655 35.3701 12.6608 35.7764 11.1953" stroke="black" stroke-width="0.2938" stroke-miterlimit="10" stroke-linecap="round" stroke-linejoin="round"/>
</g>
</g>
<g id="Group_6">
<path id="Vector_15" d="M24.7235 17.0297C18.7871 16.7521 16.9845 16.6146 12.6919 18.1127C11.1882 18.6374 10.7924 18.8337 9.89194 19.4914C7.48524 21.2495 2.68069 32.635 1.98493 34.6354C1.28904 36.636 0.419301 39.9411 6.33387 39.9411C12.2484 39.9411 21.3848 39.9411 21.3848 39.9411H27.9845L28.459 35.3075C28.459 35.3075 29.9632 38.6832 34.7311 34.0361C38.0312 30.8195 35.564 19.4726 34.1883 16.7214C34.1883 16.7214 31.9845 17.0598 30.3667 15.8816C30.3667 15.8816 29.4972 17.4418 29.1772 20.1796C29.1772 20.1796 29.1654 20.0913 29.131 19.9475C28.8914 18.9462 28.1372 18.2046 27.219 17.7385C26.0859 17.1634 24.7235 17.0297 24.7235 17.0297Z" fill="#EF65C1"/>
<g id="Group_7">
<g id="Clip path group">
<mask id="mask0_357_1655" style="mask-type:luminance" maskUnits="userSpaceOnUse" x="1" y="15" width="36" height="25">
<g id="SVGID_00000044176979661892833770000007870133792948067252_">
<path id="Vector_16" d="M24.7225 17.0309C18.7862 16.7533 16.9835 16.6159 12.6909 18.1139C11.1873 18.6386 10.7914 18.8349 9.89097 19.4926C7.48426 21.2507 2.67972 32.6362 1.98395 34.6366C1.28806 36.6372 0.418324 39.9423 6.33289 39.9423C12.2475 39.9423 21.3838 39.9423 21.3838 39.9423H27.9835L28.458 35.3087C28.458 35.3087 29.9623 38.6844 34.7302 34.0374C38.0302 30.8208 35.563 19.4739 34.1873 16.7226C34.1873 16.7226 31.9835 17.0611 30.3657 15.8828C30.3657 15.8828 29.4963 17.443 29.1762 20.1808C29.1762 20.1808 29.1644 20.0925 29.1301 19.9487C28.8904 18.9474 28.1362 18.2058 27.218 17.7397C26.0849 17.1647 24.7225 17.0309 24.7225 17.0309Z" fill="white"/>
</g>
</mask>
<g mask="url(#mask0_357_1655)">
<g id="Group_8">
<path id="Vector_17" d="M-6.69922 36.3758C-6.69922 36.3758 -1.37961 31.6545 0.911078 38.2526C3.20164 44.8509 11.5249 39.4869 11.5249 39.4869C11.5249 39.4869 17.74 34.2235 20.6813 41.745C23.6228 49.2667 31.1387 44.2557 31.1387 44.2557C31.1387 44.2557 37.4923 39.5868 41.0789 46.7755" stroke="#7B11CE" stroke-width="0.195867" stroke-miterlimit="10" stroke-linecap="round" stroke-linejoin="round"/>
<path id="Vector_18" d="M-5.86328 32.9867C-5.86328 32.9867 -0.543542 28.2653 1.74702 34.8635C4.03757 41.4616 12.3609 36.0978 12.3609 36.0978C12.3609 36.0978 18.576 30.8343 21.5174 38.3559C24.4588 45.8775 31.9748 40.8665 31.9748 40.8665C31.9748 40.8665 38.3285 36.1977 41.915 43.3864" stroke="#7B11CE" stroke-width="0.195867" stroke-miterlimit="10" stroke-linecap="round" stroke-linejoin="round"/>
<path id="Vector_19" d="M-5.16309 30.1474C-5.16309 30.1474 0.156527 25.4259 2.44721 32.0242C4.73777 38.6225 13.0612 33.2585 13.0612 33.2585C13.0612 33.2585 19.2763 27.995 22.2177 35.5167C25.1592 43.0383 32.6751 38.0272 32.6751 38.0272C32.6751 38.0272 39.0287 33.3584 42.6153 40.5471" stroke="#7B11CE" stroke-width="0.195867" stroke-miterlimit="10" stroke-linecap="round" stroke-linejoin="round"/>
<path id="Vector_20" d="M-4.32791 26.759C-5.16049 27.4978 1.72577 24.1518 3.28239 28.6358C5.57295 35.2341 13.8963 29.8701 13.8963 29.8701C13.8963 29.8701 20.1113 24.6066 23.0528 32.1283C25.9942 39.6499 33.5102 34.6388 33.5102 34.6388C33.5102 34.6388 39.8637 29.97 43.4503 37.1587" stroke="#7B11CE" stroke-width="0.195867" stroke-miterlimit="10" stroke-linecap="round" stroke-linejoin="round"/>
<path id="Vector_21" d="M-3.62771 23.9196C-4.46029 24.6585 2.42596 21.3124 3.98259 25.7964C6.27314 32.3947 14.5966 27.0307 14.5966 27.0307C14.5966 27.0307 20.8117 21.7673 23.7531 29.2888C26.6945 36.8105 34.2105 31.7994 34.2105 31.7994C34.2105 31.7994 40.5642 27.1305 44.1507 34.3192" stroke="#7B11CE" stroke-width="0.195867" stroke-miterlimit="10" stroke-linecap="round" stroke-linejoin="round"/>
<path id="Vector_22" d="M-2.79199 20.5307C-2.79199 20.5307 2.52762 15.8092 4.8183 22.4075C7.10886 29.0058 15.4322 23.6418 15.4322 23.6418C15.4322 23.6418 21.6473 18.3783 24.5887 25.9C27.5301 33.4216 35.0461 28.4105 35.0461 28.4105C35.0461 28.4105 41.3998 23.7417 44.9863 30.9304" stroke="#7B11CE" stroke-width="0.195867" stroke-miterlimit="10" stroke-linecap="round" stroke-linejoin="round"/>
<path id="Vector_23" d="M-2.0918 17.6913C-2.0918 17.6913 3.22782 12.9699 5.5185 19.5681C7.80918 26.1662 16.1324 20.8023 16.1324 20.8023C16.1324 20.8023 22.3475 15.5389 25.2889 23.0604C28.2303 30.5821 35.7463 25.571 35.7463 25.571C35.7463 25.571 42.1 20.9021 45.6864 28.0908" stroke="#7B11CE" stroke-width="0.195867" stroke-miterlimit="10" stroke-linecap="round" stroke-linejoin="round"/>
<path id="Vector_24" d="M0.142578 13.5347C0.142578 13.5347 4.06419 9.58105 6.35488 16.1793C8.64556 22.7776 16.9689 17.4136 16.9689 17.4136C16.9689 17.4136 23.184 12.1502 26.1253 19.6717C29.0667 27.1934 36.5827 22.1823 36.5827 22.1823C36.5827 22.1823 42.9362 17.5134 46.5228 24.7021" stroke="#7B11CE" stroke-width="0.195867" stroke-miterlimit="10" stroke-linecap="round" stroke-linejoin="round"/>
<path id="Vector_25" d="M0.842773 10.6964C0.842773 10.6964 6.16239 5.97502 8.45307 12.5732C10.6232 18.8244 14.0614 16.9695 17.6689 14.5753C17.6689 14.5753 23.884 9.31183 26.8253 16.8334C29.7668 24.355 37.2827 19.3441 37.2827 19.3441C37.2827 19.3441 43.6363 14.6752 47.2229 21.8639" stroke="#7B11CE" stroke-width="0.195867" stroke-miterlimit="10" stroke-linecap="round" stroke-linejoin="round"/>
<path id="Vector_26" d="M1.54297 7.85703C1.54297 7.85703 6.86258 3.13567 9.15327 9.73383C11.4438 16.3321 18.3691 11.7359 18.3691 11.7359C18.3691 11.7359 24.5842 6.47247 27.5257 13.994C30.4671 21.5157 37.9831 16.5046 37.9831 16.5046C37.9831 16.5046 44.3366 11.8357 47.9232 19.0244" stroke="#7B11CE" stroke-width="0.195867" stroke-miterlimit="10" stroke-linecap="round" stroke-linejoin="round"/>
</g>
</g>
</g>
</g>
<path id="Vector_27" d="M13.7404 24.0002C13.7404 24.0002 12.7127 30.4868 11.5928 33.2768" stroke="black" stroke-width="0.2938" stroke-miterlimit="10" stroke-linecap="round" stroke-linejoin="round"/>
<path id="Vector_28" d="M29.5966 17.8264C29.5966 17.8264 27.665 27.005 28.4592 35.3081" stroke="black" stroke-width="0.2938" stroke-miterlimit="10" stroke-linecap="round" stroke-linejoin="round"/>
<path id="Vector_29" d="M12.553 30.0146L13.7951 33.5987L11.5801 33.3085C11.5801 33.3085 12.5509 30.737 12.553 30.0146Z" fill="black"/>
<path id="Vector_30" d="M8.52637 32.8506L18.5833 34.2776C18.894 34.3217 19.1075 34.6129 19.0562 34.9225L18.3903 38.9374" stroke="black" stroke-width="0.2938" stroke-miterlimit="10" stroke-linecap="round" stroke-linejoin="round"/>
<path id="Vector_31" d="M15.8789 17.2018C15.8789 17.2018 17.8592 20.0272 21.4102 19.4005C24.9611 18.7739 23.9432 16.9927 23.9432 16.9927" stroke="black" stroke-width="0.2938" stroke-miterlimit="10" stroke-linecap="round" stroke-linejoin="round"/>
</g>
<g id="Group_9">
<path id="Vector_32" d="M26.7825 12.9999C26.509 14.805 24.9017 16.1595 22.6381 15.3689L22.4172 15.2883L22.7938 17.0625C22.7938 17.0625 22.2091 18.785 20.2826 18.4994C17.5666 18.0968 17.0867 16.9063 17.0867 16.9063L17.3909 11.9937C17.3909 11.9937 16.1375 12.3251 16.2481 10.5169C16.3654 8.59753 17.6765 9.06226 17.6765 9.06226L17.6942 8.94294C17.8629 6.37887 19.6651 5.06254 21.7971 4.98443L22.2895 4.9611C22.2895 4.9611 28.1129 4.21854 26.7825 12.9999Z" fill="#94332A"/>
<path id="Vector_33" d="M17.6102 10.1389C17.6102 10.1389 17.8317 10.3853 17.5904 10.486C17.0762 10.7008 17.7372 10.8831 17.5667 11.0619" stroke="black" stroke-width="0.2938" stroke-miterlimit="10" stroke-linecap="round" stroke-linejoin="round"/>
<path id="Vector_34" d="M17.7125 9.58507C17.7125 9.58507 16.8675 9.07431 16.9129 10.3647" stroke="black" stroke-width="0.2938" stroke-miterlimit="10" stroke-linecap="round" stroke-linejoin="round"/>
<path id="Vector_35" d="M23.2717 8.34935C23.1537 8.34123 22.9853 8.32817 22.8374 8.32817C22.6845 8.32563 22.5294 8.32842 22.3733 8.3411C22.2172 8.35366 22.0603 8.37331 21.8988 8.39411C21.7356 8.4111 21.5727 8.43912 21.3891 8.4466L21.3849 8.44686C21.3403 8.44863 21.3027 8.41401 21.3008 8.36938C21.3001 8.34795 21.3077 8.32792 21.3209 8.31283C21.4446 8.17132 21.5937 8.05833 21.7558 7.96995C21.9167 7.87637 22.0939 7.81906 22.2733 7.76859C22.4536 7.72002 22.6401 7.69365 22.8287 7.6849C23.0223 7.68072 23.197 7.68655 23.4144 7.74577C23.5791 7.79053 23.6762 7.96044 23.6315 8.12503C23.5922 8.26971 23.4563 8.36228 23.3124 8.35226L23.2717 8.34935Z" fill="black"/>
<g id="Group_10">
<g id="Clip path group_2">
<mask id="mask1_357_1655" style="mask-type:luminance" maskUnits="userSpaceOnUse" x="25" y="7" width="2" height="3">
<g id="SVGID_00000163072333185806557760000000625865092086019972_">
<path id="Vector_36" d="M26.5203 7.68286C26.5203 7.68286 26.775 8.264 26.9035 9.28387C26.9035 9.28387 25.2767 9.34207 25.0957 8.71744C25.0958 8.71732 24.961 7.79584 26.5203 7.68286Z" fill="white"/>
</g>
</mask>
<g mask="url(#mask1_357_1655)">
<path id="Vector_37" d="M25.7013 8.22377C25.8583 8.16645 25.9814 8.15301 26.123 8.14743C26.2605 8.14515 26.3981 8.16125 26.5316 8.19498C26.6646 8.22871 26.7958 8.27525 26.911 8.35285C27.027 8.42614 27.1282 8.52632 27.1973 8.65007C27.2205 8.69154 27.2055 8.74391 27.1642 8.76711C27.1525 8.77371 27.1399 8.77713 27.1273 8.77789L27.1189 8.77827C26.9829 8.7855 26.8737 8.77497 26.7644 8.77574C26.6571 8.77396 26.5566 8.76711 26.4554 8.77117C26.3548 8.77332 26.2554 8.77903 26.1568 8.79006C26.0625 8.79704 25.9502 8.8153 25.8787 8.81821L25.8192 8.82062C25.6493 8.82747 25.506 8.69534 25.4993 8.52543C25.4936 8.38835 25.5791 8.26853 25.7013 8.22377Z" fill="black"/>
</g>
</g>
</g>
<g id="Group_11">
<g id="Clip path group_3">
<mask id="mask2_357_1655" style="mask-type:luminance" maskUnits="userSpaceOnUse" x="24" y="9" width="3" height="3">
<g id="SVGID_00000033369313050100817350000000228394462001885826_">
<path id="Vector_38" d="M26.8605 9.00122C26.8605 9.00122 27.0485 9.95236 26.9463 11.4314C26.9463 11.4314 26.1064 11.7741 25.5166 11.2958C25.2441 11.0747 25.1088 10.6244 24.9473 9.91597C24.9471 9.9161 25.7443 9.10786 26.8605 9.00122Z" fill="white"/>
</g>
</mask>
<g mask="url(#mask2_357_1655)">
<g id="Group_12">
<g id="Group_13">
<g id="Group_14">
<path id="Vector_39" d="M24.9033 10.326C24.9033 10.326 26.4389 8.48881 28.0195 10.2846C28.0195 10.2846 27.5772 11.2086 26.5455 11.3365C25.514 11.4644 24.9033 10.326 24.9033 10.326Z" fill="white"/>
<g id="Clip path group_4">
<mask id="mask3_357_1655" style="mask-type:luminance" maskUnits="userSpaceOnUse" x="24" y="9" width="5" height="3">
<g id="SVGID_00000066479180730588836820000004785218435825294768_">
<path id="Vector_40" d="M24.9033 10.327C24.9033 10.327 26.4389 8.48978 28.0195 10.2856C28.0195 10.2856 27.5772 11.2096 26.5455 11.3375C25.514 11.4653 24.9033 10.327 24.9033 10.327Z" fill="white"/>
</g>
</mask>
<g mask="url(#mask3_357_1655)">
<path id="Vector_41" d="M27.6989 10.4903C27.7434 11.0368 27.3791 11.5126 26.8852 11.5529C26.3912 11.5933 25.9546 11.1829 25.91 10.6364C25.8653 10.0899 26.2296 9.61399 26.7236 9.5738C27.2177 9.53335 27.6544 9.94381 27.6989 10.4903Z" fill="black"/>
</g>
</g>
</g>
</g>
<path id="Vector_42" d="M28.0175 10.2518C28.0175 10.2518 26.6633 8.2626 24.9014 10.2933" stroke="black" stroke-width="1.1752" stroke-miterlimit="10" stroke-linecap="round" stroke-linejoin="round"/>
</g>
</g>
</g>
</g>
<g id="Group_15">
<path id="Vector_43" d="M20.8594 10.549C20.8594 10.549 22.395 8.71175 23.9755 10.5074C23.9755 10.5074 23.5333 11.4313 22.5016 11.5593C21.4701 11.6872 20.8594 10.549 20.8594 10.549Z" fill="white"/>
<g id="Group_16">
<g id="Group_17">
<g id="Clip path group_5">
<mask id="mask4_357_1655" style="mask-type:luminance" maskUnits="userSpaceOnUse" x="20" y="9" width="4" height="3">
<g id="SVGID_00000177454208178957301970000000559657441634869914_">
<path id="Vector_44" d="M20.8604 10.5485C20.8604 10.5485 22.3959 8.71126 23.9765 10.5069C23.9765 10.5069 23.5342 11.4308 22.5026 11.5589C21.471 11.6867 20.8604 10.5485 20.8604 10.5485Z" fill="white"/>
</g>
</mask>
<g mask="url(#mask4_357_1655)">
<path id="Vector_45" d="M23.9933 10.453C24.1821 11.1395 23.631 11.7882 22.9229 11.7126C22.5274 11.6704 22.1877 11.3818 22.0824 10.9983C21.8936 10.312 22.4446 9.66311 23.1527 9.73868C23.5482 9.78091 23.8879 10.0695 23.9933 10.453Z" fill="black"/>
</g>
</g>
</g>
</g>
<g id="Group_18">
<path id="Vector_46" d="M23.9164 10.5167C23.7007 10.3104 23.4595 10.1245 23.2064 9.9907C22.9522 9.85756 22.682 9.77818 22.4129 9.78731C22.1441 9.79289 21.879 9.88546 21.6304 10.029C21.3801 10.1711 21.1471 10.3613 20.9122 10.5625C20.8824 10.5885 20.8371 10.5853 20.8113 10.5555C20.7907 10.5319 20.7888 10.4982 20.8035 10.4724C20.9643 10.1971 21.1772 9.94582 21.4474 9.74915C21.7137 9.55184 22.0509 9.41172 22.4051 9.40944C22.7582 9.40272 23.1008 9.52597 23.3734 9.71618C23.6486 9.90714 23.8724 10.1479 24.0316 10.4351C24.0506 10.4694 24.0381 10.5126 24.0039 10.5315C23.9761 10.547 23.9424 10.5417 23.9206 10.5209L23.9164 10.5167Z" fill="black"/>
</g>
</g>
<path id="Vector_47" d="M22.4173 15.2876L21.1357 14.9204L22.6865 16.5555L22.4173 15.2876Z" fill="black"/>
<g id="Group_19">
<path id="Vector_48" d="M25.8944 12.8169C25.8944 12.8169 24.9537 12.9139 23.5474 12.7576C23.5474 12.7576 23.4349 14.2234 24.732 14.2701C25.7058 14.3049 25.8944 12.8169 25.8944 12.8169Z" fill="black"/>
<path id="Vector_49" d="M23.6396 13.4545C23.6396 13.4545 24.4052 13.4245 24.9759 13.8782C25.1433 14.0112 25.0614 14.2601 24.8443 14.2791C24.6894 14.2927 24.4835 14.2723 24.2191 14.1741C24.2191 14.1741 23.7703 13.9697 23.6396 13.4545Z" fill="#FF5E43"/>
<path id="Vector_50" d="M25.8939 12.8169C25.8939 12.8169 24.9715 13.6462 23.5469 12.7576L25.8939 12.8169Z" fill="white"/>
</g>
<path id="Vector_51" d="M17.3906 11.9933L17.9402 11.8403" stroke="black" stroke-width="0.2938" stroke-miterlimit="10" stroke-linecap="round" stroke-linejoin="round"/>
<g id="Group_20">
<path id="Vector_52" d="M24.957 9.88965C25.1305 10.861 25.5328 11.1554 25.5328 11.1554C25.5328 11.1554 25.764 11.3431 25.6699 11.5779C25.5758 11.8127 25.4304 11.6989 25.2318 11.8409" stroke="black" stroke-width="0.2938" stroke-miterlimit="10" stroke-linecap="round" stroke-linejoin="round"/>
<path id="Vector_53" d="M24.7187 11.6917C24.7187 11.6917 24.683 11.6785 24.6202 11.6893C24.5573 11.6999 24.5127 11.7631 24.5127 11.7631" stroke="black" stroke-width="0.2938" stroke-miterlimit="10" stroke-linecap="round" stroke-linejoin="round"/>
<path id="Vector_54" d="M24.2659 11.2112C24.2659 11.2112 23.9361 11.4273 24.2081 11.817" stroke="black" stroke-width="0.2938" stroke-miterlimit="10" stroke-linecap="round" stroke-linejoin="round"/>
</g>
<path id="Vector_55" d="M21.6105 6.24677C21.6105 6.24677 20.9885 7.51543 19.8203 7.25358C19.8203 7.25358 20.1627 9.06635 19.0751 9.12671C19.0751 9.12671 18.6343 10.0852 17.6764 9.06217C17.6764 9.06217 16.5361 8.59984 16.2793 10.2145C16.2793 10.2145 15.9295 12.1814 17.3908 11.9936L17.2183 14.7783C17.2183 14.7783 15.5013 16.0019 14.6266 15.192C13.7519 14.3822 13.914 13.1694 13.914 13.1694C13.914 13.1694 11.452 12.8594 11.3872 11.0616C11.3224 9.26378 12.5857 8.81021 12.5857 8.81021C12.5857 8.81021 10.804 7.35249 11.6462 5.34394C12.4885 3.33552 14.8209 3.62704 14.8209 3.62704C14.8209 3.62704 14.7237 1.65095 16.6997 0.873523C18.6758 0.0960973 19.7448 1.39189 19.7448 1.39189C19.7448 1.39189 21.2998 0.096097 23.0167 0.484873C24.7336 0.873649 24.7183 2.26657 24.7183 2.26657C24.7183 2.26657 26.7745 2.13698 27.7139 4.01594C28.6533 5.89477 27.7139 6.83425 27.7139 6.83425C27.7139 6.83425 28.1955 8.15211 26.7857 8.59109C26.7857 8.59109 26.6305 7.83941 26.3941 7.38165C26.3941 7.38165 25.138 7.5238 24.7194 6.40248C24.7198 6.40248 22.8964 7.09901 21.6105 6.24677Z" fill="black"/>
<path id="Vector_56" d="M16.3067 10.9314C16.3067 10.9314 15.6736 11.6636 16.174 12.0951C16.6742 12.5266 16.7093 11.5612 16.7093 11.5612" stroke="#FFCA36" stroke-width="0.2938" stroke-miterlimit="10" stroke-linecap="round" stroke-linejoin="round"/>
</g>
<path id="Vector_57" d="M34.8012 38.5315H23.6416V39.9406H34.8012V38.5315Z" fill="black"/>
<g id="Group_21">
<path id="Vector_58" d="M18.9549 35.5758L18.2227 39.9396C18.2227 39.9396 21.9149 40.4989 23.1743 38.2091C23.1743 38.2091 25.2078 39.6672 26.0649 38.9327C26.0649 38.9327 27.0202 39.4224 27.8648 38.9082C27.8648 38.9082 28.6605 39.4468 29.493 38.8103C29.493 38.8103 30.8397 39.3489 31.1335 38.3206C31.4273 37.2921 27.3381 35.6515 25.82 34.8435C24.3018 34.0354 22.7102 34.721 21.8777 35.0639C21.0453 35.4065 20.3174 35.5981 18.9549 35.5758Z" fill="#94332A"/>
<path id="Vector_59" d="M20.0928 38.7247C20.0928 38.7247 21.2378 39.2299 22.7868 37.967C22.7868 37.967 24.0574 38.9391 25.0301 39.0929" stroke="black" stroke-width="0.2938" stroke-miterlimit="10" stroke-linecap="round" stroke-linejoin="round"/>
<path id="Vector_60" d="M26.0644 38.9329C26.0644 38.9329 26.8779 38.3213 23.0557 36.5703" stroke="black" stroke-width="0.2938" stroke-miterlimit="10" stroke-linecap="round" stroke-linejoin="round"/>
<path id="Vector_61" d="M27.865 38.9087C27.865 38.9087 28.9496 37.968 24.4033 35.998" stroke="black" stroke-width="0.2938" stroke-miterlimit="10" stroke-linecap="round" stroke-linejoin="round"/>
<path id="Vector_62" d="M29.4922 38.8103C29.4922 38.8103 30.5144 37.5972 25.5137 35.6104" stroke="black" stroke-width="0.2938" stroke-miterlimit="10" stroke-linecap="round" stroke-linejoin="round"/>
<path id="Vector_63" d="M18.9553 35.5762L18.3027 39.4652" stroke="black" stroke-width="0.2938" stroke-miterlimit="10" stroke-linecap="round" stroke-linejoin="round"/>
</g>
<g id="Group_22">
<path id="Vector_64" d="M50.4666 27.0762H33.594C33.2955 27.0762 33.0295 27.2647 32.9306 27.5464L28.9084 39.0046C28.7479 39.4618 29.0872 39.9405 29.5719 39.9405H46.4444C46.7429 39.9405 47.009 39.752 47.1079 39.4703L51.13 28.0121C51.2905 27.555 50.9511 27.0762 50.4666 27.0762Z" fill="#41B870"/>
<path id="Vector_65" d="M33.5943 27.0762C33.2958 27.0762 33.0298 27.2647 32.9309 27.5464L30.502 34.466" stroke="black" stroke-width="0.2938" stroke-miterlimit="10" stroke-linecap="round" stroke-linejoin="round"/>
<path id="Vector_66" d="M47.1087 39.4703L51.1309 28.0121C51.2914 27.5549 50.9521 27.0762 50.4674 27.0762H37.5791" stroke="black" stroke-width="0.2938" stroke-miterlimit="10" stroke-linecap="round" stroke-linejoin="round"/>
<path id="Vector_67" d="M41.3438 33.8375C41.1511 34.6131 40.495 35.1177 39.8781 34.9645C39.2613 34.8113 38.9175 34.0582 39.1102 33.2826C39.3029 32.5069 39.959 32.0024 40.5759 32.1556C41.1927 32.3089 41.5366 33.0618 41.3438 33.8375Z" fill="#FFFBF8"/>
</g>
</g>
</g>
</svg>
