<svg width="20" height="20" viewBox="0 0 20 20" fill="none" xmlns="http://www.w3.org/2000/svg">
<g id="Icon">
<path id="icon" fill-rule="evenodd" clip-rule="evenodd" d="M8.39447 3.75715C9.31011 2.94326 10.6899 2.94325 11.6055 3.75715L17.9983 9.43954C18.3079 9.71472 18.3358 10.1888 18.0606 10.4984C17.7854 10.808 17.3113 10.8358 17.0017 10.5607L10.609 4.87827C10.2617 4.56955 9.73832 4.56955 9.39101 4.87827L2.99828 10.5607C2.68869 10.8358 2.21464 10.808 1.93945 10.4984C1.66426 10.1888 1.69215 9.71472 2.00174 9.43954L8.39447 3.75715ZM4.92011 10.0877C5.33196 10.0436 5.70161 10.3417 5.74574 10.7535L6.21119 15.0977C6.2611 15.5635 6.65418 15.9168 7.12264 15.9168H7.58334V12.5001C7.58334 11.6256 8.29222 10.9168 9.16667 10.9168H10.8333C11.7078 10.9168 12.4167 11.6256 12.4167 12.5001V15.9168H12.8774C13.3458 15.9168 13.7389 15.5635 13.7888 15.0978L14.2543 10.7535C14.2984 10.3417 14.668 10.0436 15.0799 10.0877C15.4918 10.1318 15.7899 10.5015 15.7457 10.9133L15.2803 15.2576C15.1487 16.4856 14.1124 17.4168 12.8774 17.4168H11.6667H8.33334H7.12264C5.88761 17.4168 4.8513 16.4856 4.71973 15.2575L4.25428 10.9133C4.21015 10.5015 4.50825 10.1318 4.92011 10.0877ZM10.9167 15.9168V12.5001C10.9167 12.4541 10.8794 12.4168 10.8333 12.4168H9.16667C9.12065 12.4168 9.08334 12.4541 9.08334 12.5001V15.9168H10.9167Z" fill="#ECFDF5"/>
</g>
</svg>
