<svg width="20" height="20" viewBox="0 0 20 20" fill="none" xmlns="http://www.w3.org/2000/svg">
<g id="Lead Icon">
<path id="icon" fill-rule="evenodd" clip-rule="evenodd" d="M5.83337 7.5H5.00004C4.07957 7.5 3.33337 8.24619 3.33337 9.16667V15.8333C3.33337 16.7538 4.07957 17.5 5.00004 17.5H15C15.9205 17.5 16.6667 16.7538 16.6667 15.8333V9.16667C16.6667 8.24619 15.9205 7.5 15 7.5H14.1667V6.90476C14.1667 4.52716 12.3544 2.5 10 2.5C7.64564 2.5 5.83337 4.52716 5.83337 6.90476V7.5ZM7.50004 6.90476C7.50004 5.33747 8.67255 4.16667 10 4.16667C11.3275 4.16667 12.5 5.33747 12.5 6.90476V7.5H7.50004V6.90476ZM10 15C9.5398 15 9.16671 14.6269 9.16671 14.1667V14.0717C9.16671 13.6046 8.93105 13.1812 8.69904 12.7642C8.63551 12.65 8.57225 12.5364 8.51417 12.4224C8.39856 12.1956 8.33337 11.9387 8.33337 11.6667C8.33337 10.7462 9.07957 10 10 10C10.9205 10 11.6667 10.7462 11.6667 11.6667C11.6667 11.9387 11.6015 12.1956 11.4859 12.4224C11.4278 12.5364 11.3646 12.65 11.301 12.7642C11.069 13.1812 10.8334 13.6046 10.8334 14.0717V14.1667C10.8334 14.6269 10.4603 15 10 15Z" fill="#828387"/>
</g>
</svg>
