<svg width="20" height="20" viewBox="0 0 20 20" fill="none" xmlns="http://www.w3.org/2000/svg">
<g id="icon">
<path id="icon_2" fill-rule="evenodd" clip-rule="evenodd" d="M10 4.16669C6.23284 4.16669 3.45633 7.00224 2.53299 9.79506C2.489 9.9281 2.489 10.0719 2.53299 10.205C3.45633 12.9978 6.23284 15.8334 10 15.8334C13.7672 15.8334 16.5437 12.9978 17.467 10.205C17.511 10.0719 17.511 9.9281 17.467 9.79506C16.5437 7.00224 13.7672 4.16669 10 4.16669ZM14.1667 10C14.1667 12.3012 12.3012 14.1667 10 14.1667C7.69881 14.1667 5.83333 12.3012 5.83333 10C5.83333 7.69883 7.69881 5.83335 10 5.83335C12.3012 5.83335 14.1667 7.69883 14.1667 10ZM10 12.5C11.3807 12.5 12.5 11.3807 12.5 10C12.5 8.61931 11.3807 7.50002 10 7.50002C8.61929 7.50002 7.5 8.61931 7.5 10C7.5 11.3807 8.61929 12.5 10 12.5Z" fill="#828387"/>
</g>
</svg>
