<svg width="48" height="48" viewBox="0 0 48 48" fill="none" xmlns="http://www.w3.org/2000/svg">
<rect y="-6.10352e-05" width="48" height="48" rx="7.30539" fill="#2C2E34"/>
<mask id="mask0_10_3156" style="mask-type:alpha" maskUnits="userSpaceOnUse" x="12" y="12" width="24" height="24">
<path d="M12 11.9999H36V35.9999H12V11.9999Z" fill="white"/>
</mask>
<g mask="url(#mask0_10_3156)">
<path fill-rule="evenodd" clip-rule="evenodd" d="M20.015 24.4385C20.0658 24.2792 20.0869 24.1151 20.0831 23.9531C20.0772 23.8358 20.062 23.7186 20.0285 23.6013C19.9278 23.237 19.6892 22.9116 19.3317 22.7064L14.2473 19.7843C13.5295 19.3731 12.6144 19.6176 12.2025 20.331C11.7866 21.0433 12.0319 21.953 12.7497 22.3652L15.5909 24.0007L12.7497 25.6318C12.0319 26.0447 11.7875 26.9546 12.2025 27.6698C12.6144 28.3813 13.5295 28.6246 14.2473 28.2134L19.3317 25.2894C19.6748 25.0929 19.9077 24.7847 20.015 24.4385ZM21.3948 27.1768C21.1027 27.152 20.799 27.2131 20.5257 27.3715L15.4375 30.2917C14.7216 30.7037 14.4772 31.6183 14.8903 32.3318C15.3053 33.0434 16.2195 33.2885 16.9343 32.8745L19.7851 31.2378V34.5083C19.7851 35.3323 20.4548 35.9999 21.2837 35.9999C22.1086 35.9999 22.7804 35.3323 22.7804 34.5083V28.6617C22.7804 27.8767 22.1691 27.2321 21.3948 27.1768ZM26.6057 20.8227C26.897 20.8467 27.1998 20.7848 27.4731 20.6283L32.5603 17.7053C33.2772 17.2931 33.5204 16.3823 33.1083 15.6669C32.6954 14.9548 31.7803 14.7104 31.0645 15.1223L28.2156 16.7609V13.4894C28.2156 12.6677 27.5459 11.9999 26.717 11.9999C25.8881 11.9999 25.2201 12.6677 25.2201 13.4894V19.336C25.2201 20.1201 25.8297 20.7658 26.6057 20.8227ZM15.4375 17.7053L20.5257 20.6283C20.799 20.7848 21.1027 20.8467 21.3948 20.8227C22.1691 20.7658 22.7804 20.1201 22.7804 19.336V13.4894C22.7804 12.6677 22.1086 11.9999 21.2837 11.9999C20.4548 11.9999 19.7851 12.6677 19.7851 13.4894V16.7609L16.9343 15.1223C16.2195 14.7104 15.3053 14.9548 14.8903 15.6669C14.4772 16.3823 14.7216 17.2931 15.4375 17.7053ZM24.9998 23.9885C24.9998 23.9036 24.9481 23.7852 24.8878 23.7224L24.2754 23.1157C24.2151 23.0558 24.0961 23.0061 24.0107 23.0061H23.9869C23.9016 23.0061 23.7829 23.0558 23.7234 23.1157L23.1111 23.7224C23.0497 23.7852 23.0027 23.9036 23.0027 23.9885V24.0123C23.0027 24.0962 23.0497 24.2135 23.1111 24.2746L23.7234 24.883C23.7837 24.9431 23.9016 24.9926 23.9869 24.9926H24.0107C24.0961 24.9926 24.2151 24.9431 24.2754 24.883L24.8878 24.2746C24.9481 24.2135 24.9998 24.0962 24.9998 24.0123V23.9885ZM26.6901 24.5721L24.5753 26.6743C24.5148 26.7361 24.398 26.7867 24.3099 26.7867H24.1565H23.8441H23.688C23.6026 26.7867 23.4838 26.7361 23.4224 26.6743L21.3087 24.5721C21.2482 24.5129 21.1993 24.3938 21.1993 24.3098V24.1543V23.8434V23.69C21.1993 23.604 21.2482 23.4848 21.3087 23.4247L23.4224 21.3226C23.4838 21.2607 23.6026 21.212 23.688 21.212H23.8441H24.1565H24.3099C24.3961 21.212 24.5148 21.2607 24.5753 21.3226L26.6901 23.4247C26.7505 23.4848 26.7994 23.604 26.7994 23.69V23.8434V24.1543V24.3098C26.7994 24.3938 26.7505 24.5129 26.6901 24.5721ZM32.5603 30.2917L27.4731 27.3715C27.1998 27.2131 26.897 27.152 26.6057 27.1768C25.8297 27.2321 25.2201 27.8767 25.2201 28.6617V34.5083C25.2201 35.3323 25.8881 35.9999 26.717 35.9999C27.5459 35.9999 28.2156 35.3323 28.2156 34.5083V31.2378L31.0645 32.8745C31.7801 33.2885 32.6954 33.0434 33.1083 32.3318C33.5204 31.6183 33.2772 30.7037 32.5603 30.2917ZM35.2502 22.3652L32.4088 24.0007L35.2502 25.6318C35.9678 26.0447 36.2131 26.9546 35.7982 27.6698C35.3842 28.3813 34.4683 28.6246 33.7533 28.2134L28.665 25.2894C28.3257 25.0929 28.0901 24.7847 27.9856 24.4385C27.9358 24.2792 27.9127 24.1151 27.9185 23.9531C27.9214 23.8358 27.9386 23.7186 27.9712 23.6013C28.0729 23.237 28.3115 22.9117 28.665 22.7064L33.7533 19.7843C34.4683 19.3731 35.3842 19.6176 35.7982 20.331C36.2131 21.0433 35.9678 21.953 35.2502 22.3652Z" fill="#09D91A"/>
</g>
</svg>
