<svg width="24" height="24" viewBox="0 0 24 24" fill="none" xmlns="http://www.w3.org/2000/svg">
<g id="search-zoom">
<path id="icon" fill-rule="evenodd" clip-rule="evenodd" d="M11.0526 3.75C7.0195 3.75 3.75 7.0195 3.75 11.0526C3.75 15.0858 7.0195 18.3553 11.0526 18.3553C13.0694 18.3553 14.894 17.5387 16.2164 16.2164C17.5387 14.894 18.3553 13.0694 18.3553 11.0526C18.3553 7.0195 15.0858 3.75 11.0526 3.75ZM2.25 11.0526C2.25 6.19107 6.19107 2.25 11.0526 2.25C15.9142 2.25 19.8553 6.19107 19.8553 11.0526C19.8553 13.2131 19.0762 15.1927 17.7848 16.7242L21.5303 20.4697C21.8232 20.7626 21.8232 21.2374 21.5303 21.5303C21.2374 21.8232 20.7626 21.8232 20.4697 21.5303L16.7242 17.7848C15.1927 19.0762 13.2131 19.8553 11.0526 19.8553C6.19107 19.8553 2.25 15.9142 2.25 11.0526Z" fill="#828387"/>
</g>
</svg>
