<svg width="20" height="20" viewBox="0 0 20 20" fill="none" xmlns="http://www.w3.org/2000/svg">
<g id="Icon" clip-path="url(#clip0_357_1620)">
<g id="Vector">
<path d="M19.6234 6.92653C19.5681 6.90255 18.2214 6.31912 10.2479 2.86382C10.1695 2.82981 10.0849 2.81226 9.99944 2.81226C9.91396 2.81226 9.8294 2.82981 9.75099 2.86382L0.375491 6.92653C-0.127583 7.14409 -0.122739 7.85819 0.375491 8.07347C2.19684 8.86261 5.17438 10.153 9.75099 12.1362C9.8294 12.1702 9.91396 12.1878 9.99944 12.1878C10.0849 12.1878 10.1695 12.1702 10.2479 12.1362C10.6825 11.9479 16.6041 9.38178 16.8748 9.26455V15.9204C16.8748 16.2571 17.1336 16.5467 17.4699 16.5623C17.8289 16.579 18.1249 16.2932 18.1249 15.9379V9.03786C18.1249 8.9904 18.1077 8.94455 18.0763 8.9089C18.045 8.87325 18.0018 8.85024 17.9547 8.84417C16.7816 8.69299 11.2489 7.97889 9.91935 7.80744C9.5348 7.75939 9.29518 7.37 9.39628 7.02341C9.47558 6.7307 9.75348 6.54425 10.035 6.56362C10.063 6.56527 18.9702 7.7147 18.9639 7.71388C19.0435 7.72411 19.1191 7.75451 19.1837 7.80219C19.2483 7.84988 19.2996 7.91327 19.3328 7.98636C19.3787 8.08738 19.4957 8.13367 19.5962 8.08656C19.7643 8.00772 19.9102 7.90397 19.9765 7.66915C20.0619 7.36488 19.9076 7.04943 19.6234 6.92653Z" fill="#828387"/>
<path d="M9.25369 13.2831L4.02209 11.0161C3.8931 10.9602 3.74911 11.0548 3.74911 11.1954V13.4378C3.74911 15.5407 6.49456 17.188 9.99944 17.188C13.5043 17.188 16.2498 15.5407 16.2498 13.4378V11.1954C16.2498 11.0548 16.1058 10.9603 15.9768 11.0161L10.7448 13.2831C10.5095 13.3852 10.2557 13.4379 9.99924 13.4379C9.74274 13.4379 9.48898 13.3852 9.25369 13.2831Z" fill="#828387"/>
</g>
</g>
<defs>
<clipPath id="clip0_357_1620">
<rect width="20" height="20" fill="white"/>
</clipPath>
</defs>
</svg>
