<svg width="20" height="20" viewBox="0 0 20 20" fill="none" xmlns="http://www.w3.org/2000/svg">
<g id="Icon">
<path id="icon" fill-rule="evenodd" clip-rule="evenodd" d="M2.58366 4.16659C2.58366 3.29213 3.29254 2.58325 4.16699 2.58325H7.50033C8.37478 2.58325 9.08366 3.29213 9.08366 4.16659V7.49992C9.08366 8.37437 8.37478 9.08325 7.50033 9.08325H4.16699C3.29254 9.08325 2.58366 8.37437 2.58366 7.49992V4.16659ZM4.16699 4.08325C4.12097 4.08325 4.08366 4.12056 4.08366 4.16659V7.49992C4.08366 7.54594 4.12097 7.58325 4.16699 7.58325H7.50033C7.54635 7.58325 7.58366 7.54594 7.58366 7.49992V4.16659C7.58366 4.12056 7.54635 4.08325 7.50033 4.08325H4.16699ZM10.917 4.16659C10.917 3.29213 11.6259 2.58325 12.5003 2.58325H15.8337C16.7081 2.58325 17.417 3.29213 17.417 4.16659V15.8333C17.417 16.7077 16.7081 17.4166 15.8337 17.4166H12.5003C11.6259 17.4166 10.917 16.7077 10.917 15.8333V4.16659ZM12.5003 4.08325C12.4543 4.08325 12.417 4.12056 12.417 4.16659V15.8333C12.417 15.8793 12.4543 15.9166 12.5003 15.9166H15.8337C15.8797 15.9166 15.917 15.8793 15.917 15.8333V4.16659C15.917 4.12056 15.8797 4.08325 15.8337 4.08325H12.5003ZM2.16699 14.1666C2.16699 12.1415 3.80861 10.4999 5.83366 10.4999C7.8587 10.4999 9.50033 12.1415 9.50033 14.1666C9.50033 16.1916 7.8587 17.8333 5.83366 17.8333C3.80861 17.8333 2.16699 16.1916 2.16699 14.1666ZM5.83366 11.9999C4.63704 11.9999 3.66699 12.97 3.66699 14.1666C3.66699 15.3632 4.63704 16.3333 5.83366 16.3333C7.03028 16.3333 8.00033 15.3632 8.00033 14.1666C8.00033 12.97 7.03028 11.9999 5.83366 11.9999Z" fill="#828387"/>
</g>
</svg>
