<svg width="20" height="20" viewBox="0 0 20 20" fill="none" xmlns="http://www.w3.org/2000/svg">
<g id="Icon">
<path id="Icon (Stroke)" fill-rule="evenodd" clip-rule="evenodd" d="M5.97142 1.78565H14.0281C14.4707 1.78563 14.8454 1.78562 15.1526 1.81072C15.4747 1.83704 15.785 1.89447 16.0807 2.04515C16.5287 2.27342 16.8929 2.63766 17.1212 3.08567C17.2719 3.3814 17.3293 3.69168 17.3556 4.01377C17.3807 4.321 17.3807 4.69572 17.3807 5.1383V16.7856H18.3331C18.7276 16.7856 19.0474 17.1054 19.0474 17.4999C19.0474 17.8944 18.7276 18.2142 18.3331 18.2142H1.66643C1.27195 18.2142 0.952148 17.8944 0.952148 17.4999C0.952148 17.1054 1.27195 16.7856 1.66643 16.7856H2.61882L2.61881 5.13825C2.6188 4.69569 2.61879 4.32098 2.64389 4.01377C2.67021 3.69168 2.72764 3.3814 2.87832 3.08567C3.10659 2.63766 3.47083 2.27342 3.91884 2.04515C4.21457 1.89447 4.52485 1.83704 4.84694 1.81072C5.15415 1.78562 5.52886 1.78563 5.97142 1.78565ZM4.04739 16.7856H15.9521V5.1666C15.9521 4.6881 15.9516 4.37219 15.9318 4.1301C15.9127 3.89635 15.8793 3.79501 15.8483 3.73423C15.757 3.55502 15.6113 3.40933 15.4321 3.31802C15.3714 3.28705 15.27 3.25365 15.0363 3.23455C14.7942 3.21477 14.4783 3.21422 13.9998 3.21422H5.99977C5.52127 3.21422 5.20536 3.21477 4.96327 3.23455C4.72952 3.25365 4.62818 3.28705 4.5674 3.31802C4.38819 3.40933 4.2425 3.55502 4.15119 3.73423C4.12022 3.79501 4.08682 3.89635 4.06772 4.1301C4.04794 4.37219 4.04739 4.6881 4.04739 5.1666V16.7856ZM5.53548 5.83326C5.53548 5.43878 5.85528 5.11898 6.24977 5.11898H8.54143C8.93592 5.11898 9.25572 5.43878 9.25572 5.83326C9.25572 6.22775 8.93592 6.54755 8.54143 6.54755H6.24977C5.85528 6.54755 5.53548 6.22775 5.53548 5.83326ZM10.7438 5.83326C10.7438 5.43878 11.0636 5.11898 11.4581 5.11898H13.7498C14.1443 5.11898 14.4641 5.43878 14.4641 5.83326C14.4641 6.22775 14.1443 6.54755 13.7498 6.54755H11.4581C11.0636 6.54755 10.7438 6.22775 10.7438 5.83326ZM5.53548 9.1666C5.53548 8.77211 5.85528 8.45231 6.24977 8.45231H8.54143C8.93592 8.45231 9.25572 8.77211 9.25572 9.1666C9.25572 9.56109 8.93592 9.88088 8.54143 9.88088H6.24977C5.85528 9.88088 5.53548 9.56109 5.53548 9.1666ZM10.7438 9.1666C10.7438 8.77211 11.0636 8.45231 11.4581 8.45231H13.7498C14.1443 8.45231 14.4641 8.77211 14.4641 9.1666C14.4641 9.56109 14.1443 9.88088 13.7498 9.88088H11.4581C11.0636 9.88088 10.7438 9.56109 10.7438 9.1666ZM5.53548 12.4999C5.53548 12.1054 5.85528 11.7856 6.24977 11.7856H8.54143C8.93592 11.7856 9.25572 12.1054 9.25572 12.4999C9.25572 12.8944 8.93592 13.2142 8.54143 13.2142H6.24977C5.85528 13.2142 5.53548 12.8944 5.53548 12.4999ZM10.7438 12.4999C10.7438 12.1054 11.0636 11.7856 11.4581 11.7856H13.7498C14.1443 11.7856 14.4641 12.1054 14.4641 12.4999C14.4641 12.8944 14.1443 13.2142 13.7498 13.2142H11.4581C11.0636 13.2142 10.7438 12.8944 10.7438 12.4999Z" fill="#828387"/>
</g>
</svg>
